<svg width="1662" height="853" xmlns="http://www.w3.org/2000/svg">
 <!-- Created with Method Draw - http://github.com/duopixel/Method-Draw/ -->

 <g>
  <title>background</title>
  <rect fill="#ffffff" id="canvas_background" height="851" width="1662" y="-1" x="-1"/>
  <g display="none" overflow="visible" y="0" x="0" height="100%" width="100%" id="canvasGrid">
   <rect fill="url(#gridpattern)" stroke-width="0" height="849" width="1660"/>
  </g>
 </g>
 <g>
  <title>Layer 1</title>

  <g stroke="null" id="svg_15">
   <rect stroke="null" transform="matrix(1.0001152128656907,0,0,1.001189181031479,348.3755231183585,-477.1824391842265) " id="svg_4" class="background" fill="#FEFFFF" height="849" width="1660" y="479.607274" x="-343.944617"/>
   <g stroke="null" transform="matrix(8.361674505591663,0,0,7.643547743767852,-8415.868943862664,-4509.439727812682) " id="svg_6" class="bordersvg b-d1" fill="#3a62d7">
    <polyline stroke="#3a62d7" id="svg_7" points="1031.94970703125,630.5656729340553 1031.94970703125,605.5656729340553 1187.4935302734375,605.5656729340553 1187.4935302734375,686.8056631684303 1031.94970703125,686.8056631684303 1031.94970703125,666.8056631684303 " fill="#FEFFFF" fill-opacity="0" stroke-width="4"/>
    <g stroke="null" id="svg_8">
     <g stroke="null" id="svg_9">
      <rect stroke="null" id="svg_10" fill-opacity="0" height="36.24" width="172.050003" y="630.565673" x="1010.443593" class="i-icon-bg" stroke-width="2" data-gra="graph-name-bg"/>
      <!---->
      <!---->
     </g>
     <g stroke="null" id="svg_11">
      <g stroke="null" id="svg_12" class="tp-name" data-gra="path-name">
       <g stroke="null" id="svg_13">
        <path stroke="null" id="svg_14" d="m1020.443593,633.560672l6.34,0l0,18.01q0,2.15 0.36,3.35q0.36,1.19 1.22,2.05l0,0q1.89,1.84 5.26,1.84l0,0q2.16,0 3.76,-0.74q1.6,-0.74 2.23,-2l0,0q0.63,-1.27 0.63,-4.5l0,0l0,-18.01l6.39,0l0,17.69q0,3.51 -0.74,5.78q-0.75,2.28 -2.27,3.67l0,0q-3.56,3.1 -10.09,3.1l0,0q-6.97,0 -10.16,-3.05l0,0q-1.67,-1.58 -2.3,-3.54q-0.63,-1.95 -0.63,-5.51l0,0l0,-18.14zm41.94,8.11l8.24,0l0,4.68l-7.21,0q-3.64,0 -5.04,1.61l0,0q-1.35,1.54 -1.35,4.69l0,0q0,3.51 2.21,5.13l0,0q0.9,0.63 1.96,0.87q1.05,0.25 2.94,0.25l0,0l6.49,0l0,4.68l-8.24,0q-3.33,0 -5.26,-0.67q-1.94,-0.68 -3.43,-2.34l0,0q-2.83,-3.16 -2.83,-8.02l0,0q0,-5.85 3.37,-8.72l0,0q1.35,-1.18 3.24,-1.67q1.9,-0.49 4.91,-0.49l0,0zm18.04,8.59l12.7,0l0,4.68l-12.7,0q0.18,2.16 1.4,3.06q1.21,0.9 3.96,0.9l0,0l7.34,0l0,4.68l-8.02,0q-2.61,0 -4.25,-0.47q-1.64,-0.47 -3.08,-1.55l0,0q-4.01,-3.11 -4.01,-9.23l0,0q0,-3.96 2.12,-6.93l0,0q1.44,-2.02 3.46,-2.88q2.03,-0.85 5.31,-0.85l0,0l8.47,0l0,4.68l-8.02,0q-2.47,0 -3.46,0.83q-0.99,0.83 -1.22,3.08l0,0zm29.48,-16.7l10.75,0l0,5.36l-8.32,0q-3.24,0 -4.73,0.45q-1.48,0.45 -2.47,1.76l0,0q-0.68,0.9 -0.92,1.8q-0.25,0.9 -0.43,3.06l0,0l16.87,0l0,5.35l-16.87,0q0.36,3.87 2.29,5.38q1.94,1.51 6.57,1.51l0,0l8.01,0l0,5.35l-8.32,0q-3.38,0 -5.94,-0.4l0,0q-4.05,-0.68 -6.44,-3.56l0,0q-3.42,-4.14 -3.42,-11.2l0,0q0,-7.83 4.82,-12.2l0,0q1.66,-1.48 3.53,-2.07q1.87,-0.59 5.02,-0.59l0,0zm24.7,8.11l5.67,0l0,-8.11l5.99,0l0,30.02l-10.35,0q-3.15,0 -4.77,-0.49l0,0q-3.83,-1.22 -5.72,-4.77l0,0q-1.3,-2.39 -1.3,-5.86l0,0q0,-5.62 3.78,-8.72l0,0q2.47,-2.07 6.7,-2.07l0,0zm1.31,17.23l4.36,0l0,-12.55l-4.36,0q-2.88,0 -4.37,1.93l0,0q-1.3,1.62 -1.3,4.18l0,0q0,3.74 2.16,5.36l0,0q1.48,1.08 3.51,1.08l0,0zm24.88,0l5.67,0l0,-17.23l6.03,0l0,21.91l-11.88,0q-2.56,0 -3.96,-0.38q-1.39,-0.39 -2.47,-1.37l0,0q-2.3,-2.07 -2.3,-6.71l0,0l0,-13.45l5.99,0l0,14.08q0,1.49 0.79,2.32q0.78,0.83 2.13,0.83l0,0z"/>
       </g>
       <!---->
       <!---->
       <!---->
       <!---->
       <!---->
       <!---->
       <!---->
      </g>
      <!---->
     </g>
    </g>
   </g>
  </g>
  <path id="svg_16" d="m855.5,309l548.5,131" opacity="0.5" stroke-opacity="null" stroke-width="null" stroke="null" fill="#FEFFFF"/>
  <path id="svg_17" d="m1315.5,738" opacity="0.5" stroke-opacity="null" stroke-width="null" stroke="null" fill="#FEFFFF"/>
  <path id="svg_19" d="m539.5,138" opacity="0.5" stroke-opacity="null" stroke-width="null" stroke="null" fill="#FEFFFF"/>
 </g>
</svg>